<?xml version="1.0" encoding="UTF-8"?><svg id="a" xmlns="http://www.w3.org/2000/svg" width="1919" height="217" viewBox="0 0 1919 217"><defs><style>.b{fill:#ba378d;}</style></defs><path class="b" d="M1919,66.8V217H0V66.8c7.7,0,15.3,.9,22.8,2.7,11.5,2.8,28.6,6.9,48.5,10.9,20,4,42.8,7.9,65.7,10.1,45.7,4.5,91.3,2.5,137-5s91.3-20.5,137.2-18.7c45.8,1.9,91.8,18.5,137.6,16.2,45.9-2.3,91.5-23.7,137.2-28.8,45.7-5.2,91.3,5.8,137,8,45.7,2.1,91.3-4.5,114.2-7.9,7.4-1,14.8-1.6,22.3-1.6s14.9,.5,22.3,1.6c19.9,3,56.8,8.3,96.1,8.3,6,0,12.1-.1,18.1-.4,45.7-2.2,91.3-13.2,137-8,45.7,5.1,91.3,26.5,137.2,28.8,45.8,2.3,91.8-14.3,137.6-16.2,45.9-1.8,91.5,11.2,137.2,18.7s91.3,9.5,137,5,91.3-15.5,114.2-21c7.5-1.8,15.2-2.7,22.8-2.7Z"/></svg>