<?xml version="1.0" encoding="UTF-8"?><svg id="a" xmlns="http://www.w3.org/2000/svg" width="1919" height="217" viewBox="0 0 1919 217"><defs><style>.b{fill:#d83f87;}</style></defs><path class="b" d="M1919,0V217H0V0C7.7,0,15.4,1.2,22.8,3.7c11.5,3.8,28.6,9.5,48.5,15.1,20,5.6,42.8,11,65.7,14.2,45.7,6.3,91.3,3.7,137,6.2s91.3,10.1,137.2,5.5c45.8-4.7,91.8-21.7,137.6-30.7,45.9-9,91.5-10,137.2,0s91.3,31,137,37.3c45.7,6.4,91.3-2,114.2-6.1,7.3-1.4,14.8-2,22.3-2s15,.7,22.3,2c17,3,46.3,8.4,79,8.4,11.5,0,23.3-.7,35.2-2.3,45.7-6.3,91.3-27.3,137-37.3s91.3-9,137.2,0c45.8,9,91.8,26,137.6,30.7,45.9,4.6,91.5-3,137.2-5.5s91.3,.1,137-6.2,91.3-21.7,114.2-29.3c7.4-2.5,15.1-3.7,22.8-3.7Z"/></svg>