<?xml version="1.0" encoding="UTF-8"?><svg id="a" xmlns="http://www.w3.org/2000/svg" width="1919" height="217" viewBox="0 0 1919 217"><defs><style>.b{fill:#44318d;}</style></defs><path class="b" d="M1919,168v49H0v-49c7.6,0,15.2-.3,22.8-1,17.7-1.5,49.1-4.3,83.5-4.3,10,0,20.3,.2,30.7,.8,45.7,2.5,91.3,11.5,137,15.7,45.7,4.1,91.3,3.5,137.2,3.5s91.8,.6,137.6,1.1c45.9,.5,91.5,.9,137.2-3.6s91.3-13.9,137-12.9,91.3,12.4,114.2,18c7.3,1.9,14.8,2.8,22.3,2.8s15-.9,22.3-2.8c11.5-2.8,28.6-7,48.5-10.7,20-3.7,42.8-6.8,65.7-7.3,45.7-1,91.3,8.4,137,12.9s91.3,4.1,137.2,3.6c45.8-.5,91.8-1.1,137.6-1.1s91.5,.6,137.2-3.5c45.7-4.2,91.3-13.2,137-15.7s91.3,1.5,114.2,3.5c7.6,.7,15.2,1,22.8,1Z"/></svg>