<?xml version="1.0" encoding="UTF-8"?><svg id="a" xmlns="http://www.w3.org/2000/svg" width="1919" height="217" viewBox="0 0 1919 217"><defs><style>.b{fill:#983391;}</style></defs><path class="b" d="M1919,132.3v84.7H0v-84.7c7.6,0,15.2,.1,22.8,.4,7.9,.2,18.5,.5,30.8,.5h2.8c23.1,0,51.8-1,80.6-5,8.8-1.3,17.7-2.8,26.5-4.5,36.8-7.2,73.6-17.3,110.5-21,45.7-4.7,91.3,.3,137.2-2,45.8-2.4,91.8-12,137.6-8.5,45.9,3.5,91.5,20.1,137.2,24.5,45.7,4.3,91.3-3.7,137-10,45.7-6.4,91.3-11,114.2-13.4,7.4-.8,14.8-1.1,22.3-1.1s14.9,.4,22.3,1.1c11.5,1.2,28.6,3,48.5,5.2,20,2.2,42.8,5,65.7,8.2,45.7,6.3,91.3,14.3,137,10,45.7-4.4,91.3-21,137.2-24.5,45.8-3.5,91.8,6.1,137.6,8.5,45.9,2.3,91.5-2.7,137.2,2,36.9,3.7,73.7,13.8,110.5,21,8.8,1.7,17.7,3.3,26.5,4.5,29.9,4.3,59.9,5.1,83.4,5,12.3,0,22.9-.3,30.8-.5,7.6-.2,15.2-.4,22.8-.4Z"/></svg>