<?xml version="1.0" encoding="UTF-8"?><svg id="a" xmlns="http://www.w3.org/2000/svg" width="1919" height="217" viewBox="0 0 1919 217"><defs><style>.b{fill:#723291;}</style></defs><path class="b" d="M1919,142.4v74.6H0v-74.6c7.7,0,15.3-.8,22.8-2.6,7.9-1.8,18.5-4.1,30.8-6.6,5.6-1.1,11.5-2.2,17.7-3.2,20-3.4,42.8-6.2,65.7-6.7,8.8-.2,17.7,0,26.5,.4,36.8,1.7,73.6,7.5,110.5,9.3,45.7,2.3,91.3-1.3,137.2-1.3s91.8,3.6,137.6,6.6c45.9,3,91.5,5.4,137.2,1.5,45.7-3.8,91.3-13.8,137-15.6,45.7-1.9,91.3,4.5,114.2,7.6,7.4,1,14.8,1.6,22.3,1.6s14.9-.5,22.3-1.6c20-2.7,57.4-8,97-8,5.7,0,11.4,.1,17.2,.4,45.7,1.8,91.3,11.8,137,15.6,45.7,3.9,91.3,1.5,137.2-1.5,45.8-3,91.8-6.6,137.6-6.6s91.5,3.6,137.2,1.3c36.9-1.8,73.7-7.7,110.5-9.3,8.8-.4,17.7-.6,26.5-.4,30,.7,59.9,5.4,83.4,9.9,12.3,2.5,22.9,4.8,30.8,6.6,7.5,1.7,15.2,2.6,22.8,2.6Z"/></svg>