<?xml version="1.0" encoding="UTF-8"?><svg id="a" xmlns="http://www.w3.org/2000/svg" width="512" height="512" viewBox="0 0 512 512"><defs><style>.d{fill:#fff;}.e{fill:#2a1b3d;}</style></defs><g id="b"><path class="e" d="M102.4,0H409.6c56.58,0,102.4,45.82,102.4,102.4V409.6c0,56.58-45.82,102.4-102.4,102.4H102.4c-56.58,0-102.4-45.82-102.4-102.4V102.4C0,45.82,45.82,0,102.4,0Z"/><g><path class="d" d="M367.39,368.22c-61.42,61.42-161.37,61.42-222.78,0-38.84-38.84-53.14-93.18-42.83-143.38H54.51c-1.66,10.54-2.48,21.15-2.48,31.99,0,26.49,5.04,52.31,14.9,76.7,10.31,25.36,25.36,48.09,44.78,67.51,19.42,19.42,42.15,34.55,67.51,44.78,24.46,9.93,50.28,14.9,76.7,14.9s52.31-5.04,76.7-14.9c25.36-10.31,48.09-25.36,67.51-44.78,19.42-19.42,34.55-42.15,44.78-67.51,9.93-24.46,14.9-50.28,14.9-76.7,0-10.76-.83-21.45-2.48-31.91h-47.27c10.46,50.13-3.76,104.47-42.68,143.3h0Z"/><path class="d" d="M374.01,277.67c-4.14,23.41-15.2,45.84-33.27,63.9-46.74,46.74-122.83,46.74-169.57,0-18.06-18.06-29.13-40.49-33.27-63.9h36.05c3.61,14.3,10.99,27.85,22.2,39.06,33.04,33.04,86.78,33.04,119.82,0,11.14-11.14,18.59-24.69,22.2-39.06h35.83Z"/><path class="d" d="M290.92,221.9c15.05,15.05,18.36,37.48,9.78,55.77-.3,.68-.6,1.28-.9,1.88-.15,.3-.3,.6-.53,.9-.15,.23-.3,.53-.45,.75-.45,.75-.9,1.51-1.35,2.26-.15,.23-.3,.38-.38,.6,0,0,0,.08-.08,.08-.38,.6-.75,1.13-1.2,1.66,0,0,0,.08-.08,.08-.23,.38-.53,.68-.75,.98s-.45,.6-.68,.83c-.15,.23-.38,.45-.6,.68s-.38,.45-.6,.75c-.3,.3-.6,.68-.9,.98l-.68,.68c-.23,.3-.53,.53-.75,.75-19.19,19.19-50.5,19.19-69.77,0-.3-.3-.53-.53-.75-.75s-.45-.45-.68-.68c-.3-.3-.6-.68-.9-.98-.23-.23-.38-.45-.6-.75-.23-.23-.38-.45-.6-.68-.23-.3-.45-.6-.68-.83-.23-.3-.53-.68-.75-.98l-.08-.08c-.38-.53-.83-1.13-1.2-1.66l-.08-.08c-.15-.23-.3-.38-.38-.6-.45-.75-.9-1.51-1.35-2.26-.15-.23-.3-.53-.45-.75-.15-.3-.3-.6-.53-.9-.3-.6-.6-1.28-.9-1.88-8.5-18.29-5.27-40.72,9.78-55.77,19.49-19.19,50.8-19.19,70.07,0h0Z"/><g id="c"><path class="d" d="M367.39,145.43c18.14,18.14,30.86,39.59,38.31,62.39h-40.27c-5.8-13.02-14-25.14-24.69-35.83-46.74-46.74-122.83-46.74-169.57,0-10.61,10.61-18.89,22.81-24.69,35.83h-40.19c7.45-22.81,20.17-44.33,38.31-62.39,61.42-61.42,161.37-61.42,222.78,0h0Z"/><path class="d" d="M401.48,111.34c11.59,11.59,21.75,24.54,30.26,38.46,8.28,13.55,14.9,28,19.79,43.13l4.89,14.9h-39.59l-1.05-3.24c-8.28-25.29-21.98-47.72-40.87-66.61-65.56-65.56-172.21-65.56-237.69,0-18.89,18.89-32.67,41.32-40.87,66.61l-1.05,3.24H55.64l4.82-14.9c4.89-15.13,11.59-29.58,19.79-43.13,8.5-13.92,18.67-26.87,30.26-38.46,80.23-80.16,210.74-80.16,290.97,0h0Z"/></g></g></g></svg>